<svg width="20" height="20" fill="none" xmlns="http://www.w3.org/2000/svg"><path fill="#333" d="M0 0h20v20H0z"/><path d="M3.118 4.294h.176v.177h-.176v-.177zm-.177 0h.177v.177H2.94v-.177zm-.176 0h.176v.177h-.176v-.177zm0 .177h.176v.176h-.176v-.176zm.176 0h.177v.176H2.94v-.176zm-.176.176h.176v.177h-.176v-.177zm-.177 0h.177v.177h-.177v-.177zm.353 0h.177v.177H2.94v-.177zm-.353.177h.177V5h-.177v-.176zm-.176 0h.176V5h-.176v-.176zm-.177 0h.177V5h-.177v-.176zm-.176 0h.176V5H2.06v-.176zm-.177 0h.177V5h-.177v-.176zm-.176 0h.176V5h-.176v-.176zm0-.177h.176v.177h-.176v-.177zm-.177 0h.177v.177h-.177v-.177zm-.176 0h.176v.177h-.176v-.177zm0-.176h.176v.176h-.176v-.176zm.176 0h.177v.176h-.177v-.176zm.177 0h.176v.176h-.176v-.176zm.176 0h.177v.176h-.177v-.176zm.177 0h.176v.176H2.06v-.176zm.176 0h.177v.176h-.177v-.176zm.177 0h.176v.176h-.176v-.176zm.176 0h.177v.176h-.177v-.176zm-.176.176h.176v.177h-.176v-.177zm-.177 0h.177v.177h-.177v-.177zm-.176 0h.176v.177H2.06v-.177zm-.177 0h.177v.177h-.177v-.177zm-.353-.353h.177v.177h-.177v-.177zm-.176 0h.176v.177h-.176v-.177zm-.177 0h.177v.177h-.177v-.177zm.353-.176h.177v.176h-.177v-.176zm.177 0h.176v.176h-.176v-.176zm.176 0h.177v.176h-.177v-.176zm0 .176h.177v.177h-.177v-.177zm-.176 0h.176v.177h-.176v-.177zm-.353-.176h.176v.176h-.176v-.176zm0-.177h.176v.177h-.176V3.94zm-.177 0h.177v.177h-.177V3.94zm0 .177h.177v.176h-.177v-.176zm.53-.177h.176v.177h-.176V3.94zm-.177 0h.177v.177h-.177V3.94zm.53.353h.176v.177H2.06v-.177zm.176 0h.177v.177h-.177v-.177zm.177 0h.176v.177h-.176v-.177zm.176 0h.177v.177h-.177v-.177zm0-.176h.177v.176h-.177v-.176zm-.176 0h.176v.176h-.176v-.176zm.353 0h.176v.176h-.176v-.176zm.176 0h.177v.176H2.94v-.176zm0-.177h.177v.177H2.94V3.94zm.177 0h.176v.177h-.176V3.94zm0-.176h.176v.176h-.176v-.176zm0 .353h.176v.176h-.176v-.176zm0-.53h.176v.177h-.176v-.177zm0-.176h.176v.176h-.176v-.176zm0-.177h.176v.177h-.176v-.177zm0-.176h.176v.176h-.176V3.06zm0-.177h.176v.177h-.176v-.177zm-.177 0h.177v.177H2.94v-.177zm0-.176h.177v.176H2.94v-.176zm-.176.176h.176v.177h-.176v-.177zm-.177 0h.177v.177h-.177v-.177zm0 .177h.177v.176h-.177V3.06zm0 .176h.177v.177h-.177v-.177zm0 .177h.177v.176h-.177v-.176zm0 .176h.177v.177h-.177v-.177zm0 .177h.177v.176h-.177v-.176zm0 .176h.177v.177h-.177V3.94zm.177 0h.176v.177h-.176V3.94zm0-.176h.176v.176h-.176v-.176zm.176 0h.177v.176H2.94v-.176zm0-.177h.177v.177H2.94v-.177zm0-.176h.177v.176H2.94v-.176zm0-.177h.177v.177H2.94v-.177zm-.176-.176h.176v.176h-.176V3.06zm0 .176h.176v.177h-.176v-.177zm0 .177h.176v.176h-.176v-.176zm0 .176h.176v.177h-.176v-.177zm.176-.53h.177v.177H2.94V3.06zm.177-.352h.176v.176h-.176v-.176zm0-.177h.176v.177h-.176v-.177zm0-.176h.176v.176h-.176v-.176zm0-.177h.176v.177h-.176v-.177zm0-.176h.176v.176h-.176V2zM2.94 2h.177v.176H2.94V2zm0-.176h.177V2H2.94v-.176zm0-.177h.177v.177H2.94v-.177zm-.176 0h.176v.177h-.176v-.177zm-.177 0h.177v.177h-.177v-.177zm.177 1.059h.176v.176h-.176v-.176zm0-.177h.176v.177h-.176v-.177zm0-.176h.176v.176h-.176v-.176zm.176 0h.177v.176H2.94v-.176zm0-.177h.177v.177H2.94v-.177zm0 .353h.177v.177H2.94v-.177zm-.353.177h.177v.176h-.177v-.176zm0-.177h.177v.177h-.177v-.177zm.177-.353h.176v.177h-.176v-.177zm-.177 0h.177v.177h-.177v-.177zm0 .177h.177v.176h-.177v-.176zm0-.53h.177V2h-.177v-.176zm.177 0h.176V2h-.176v-.176zm0 .177h.176v.176h-.176V2zm-.177 0h.177v.176h-.177V2zm0-.53h.177v.177h-.177v-.176zm.177 0h.176v.177h-.176v-.176zm.176 0h.177v.177H2.94v-.176zm.177 0h.176v.177h-.176v-.176zm0 .177h.176v.177h-.176v-.177zm0 .177h.176V2h-.176v-.176zm1.413.529h.176v.176h-.176v-.176zm.176 0h.177v.176h-.177v-.176zm-.353 0h.177v.176h-.177v-.176zm.53 0h.176v.176h-.176v-.176zm.176 0h.177v.176H5.06v-.176zm.177 0h.176v.176h-.176v-.176zm.176 0h.177v.176h-.177v-.176zm.177.176h.176v.177H5.59v-.177zm-.177 0h.177v.177h-.177v-.177zm0 .177h.177v.176h-.177v-.176zm.353-.177h.177v.177h-.177v-.177zm0 .177h.177v.176h-.177v-.176zm-.176 0h.176v.176H5.59v-.176zm-.177.176h.177v.177h-.177v-.177zm-.176 0h.176v.177h-.176v-.177zm.353 0h.176v.177H5.59v-.177zm.176 0h.177v.177h-.177v-.177zm.177 0h.176v.177h-.176v-.177zm0 .177h.176v.176h-.176V3.06zm0 1.059h.176v.176h-.176v-.176zm0 .176h.176v.177h-.176v-.177zm-.177 0h.177v.177h-.177v-.177zm0 .177h.177v.176h-.177v-.176zm0 .176h.177v.177h-.177v-.177zm-.176 0h.176v.177H5.59v-.177zm-.177 0h.177v.177h-.177v-.177zm-.176-.176h.176v.176h-.176v-.176zm0-.177h.176v.177h-.176v-.177zm.176 0h.177v.177h-.177v-.177zm0 .177h.177v.176h-.177v-.176zm.177 0h.176v.176H5.59v-.176zm0-.177h.176v.177H5.59v-.177zm0-.176h.176v.176H5.59v-.176zm-.177 0h.177v.176h-.177v-.176zm0-1.06h.177v.177h-.177V3.06zm.177 0h.176v.177H5.59V3.06zm.176 1.06h.177v.176h-.177v-.176zm0-1.06h.177v.177h-.177V3.06zm-.53 1.59h.177v.176h-.176v-.177zm0 .176h.177V5h-.176v-.176zm.177 0h.177V5h-.177v-.176zm-.353 0h.177V5H5.06v-.176zm-.176 0h.176V5h-.176v-.176zm-.177 0h.177V5h-.177v-.176zm-.176 0h.176V5h-.176v-.176zm-.177 0h.177V5h-.177v-.176zm0-.177h.177v.177h-.177v-.177zm-.176 0h.176v.177h-.176v-.177zm-.177 0h.177v.177H4v-.177zm0-.176h.177v.176H4v-.176zm-.176-.177H4v.177h-.176v-.177zm.176 0h.177v.177H4v-.177zm-.176-.176H4v.176h-.176v-.176zm0-.177H4v.177h-.176V3.94zm0-.176H4v.176h-.176v-.176zm0-.177H4v.177h-.176v-.177zm0-.176H4v.176h-.176v-.176zm0-.177H4v.177h-.176v-.177zm.176 0h.177v.177H4v-.177zm0-.176h.177v.176H4V3.06zm-.176 0H4v.176h-.176V3.06zm0-.177H4v.177h-.176v-.177zm.176 0h.177v.177H4v-.177zm0-.176h.177v.176H4v-.176zm0-.177h.177v.177H4v-.177zm.177 0h.176v.177h-.176v-.177zm.176 0h.177v.177h-.177v-.177zm.177 0h.176v.177h-.176v-.177zm0 .177h.176v.176h-.176v-.176zm0 .176h.176v.177h-.176v-.177zm-.177 0h.177v.177h-.177v-.177zm-.176 0h.176v.177h-.176v-.177zm.176.177h.177v.176h-.177V3.06zm0 .176h.177v.177h-.177v-.177zm0 .177h.177v.176h-.177v-.176zm0 .176h.177v.177h-.177v-.177zm0 .177h.177v.176h-.177v-.176zm0 .176h.177v.177h-.177V3.94zm0 .177h.177v.176h-.177v-.176zm0 .176h.177v.177h-.177v-.177zm.177 0h.176v.177h-.176v-.177zm0 .177h.176v.176h-.176v-.176zm.176 0h.177v.176h-.177v-.176zm.177 0h.176v.176h-.176v-.176zm.176 0h.177v.176H5.06v-.176zm0 .176h.177v.177H5.06v-.177zm-.176 0h.176v.177h-.176v-.177zm-.177 0h.177v.177h-.177v-.177zm-.176 0h.176v.177h-.176v-.177zm-.177-.176h.177v.176h-.177v-.176zm-.176 0h.176v.176h-.176v-.176zm0-.177h.176v.177h-.176v-.177zm0-.176h.176v.176h-.176v-.176zm0-.177h.176v.177h-.176V3.94zm-.177 0h.177v.177H4V3.94zm0 .177h.177v.176H4v-.176zm0-.353h.177v.176H4v-.176zm0-.177h.177v.177H4v-.177zm0-.176h.177v.176H4v-.176zm.177 0h.176v.176h-.176v-.176zm0 .176h.176v.177h-.176v-.177zm0 .177h.176v.176h-.176v-.176zm0-.53h.176v.177h-.176v-.177zm0-.176h.176v.176h-.176V3.06zm0-.353h.176v.176h-.176v-.176zm.176 0h.177v.176h-.177v-.176zm.353-.177h.177v.177h-.177v-.177zm.177 0h.176v.177h-.176v-.177zm.176 0h.177v.177H5.06v-.177zm.177 0h.176v.177h-.176v-.177zm0 .177h.176v.176h-.176v-.176zm-.177 0h.177v.176H5.06v-.176zm-.176 0h.176v.176h-.176v-.176zm-.177 0h.177v.176h-.177v-.176zm1.236.53h.176v.176h-.176v-.177zm-.177 0h.177v.176h-.177v-.177zm-.176 0h.176v.176H5.59v-.177zm-.177 0h.177v.176h-.177v-.177zm.53.176h.176v.176h-.176v-.176zm-.177 0h.177v.176h-.177v-.176zm-.176 0h.176v.176H5.59v-.176zm-.177 0h.177v.176h-.177v-.176zm-.176 0h.176v.176h-.176v-.176zm-.177 0h.177v.176H5.06v-.176zm-.176 0h.176v.176h-.176v-.176zm-.177 0h.177v.176h-.177v-.176zm-.176 0h.176v.176h-.176v-.176zm0 .176h.176v.177h-.176v-.177zm.176 0h.177v.177h-.177v-.177zm.177 0h.176v.177h-.176v-.177zm.176 0h.177v.177H5.06v-.177zm.177 0h.176v.177h-.176v-.177zm.176 0h.177v.177h-.177v-.177zm.177 0h.176v.177H5.59v-.177zm.176 0h.177v.177h-.177v-.177zm.177 0h.176v.177h-.176v-.177zm.53-1.235h.177v.176h-.177v-.176zm.177 0h.176v.176H6.65v-.176zm.176 0h.177v.176h-.177v-.176zm-.353.353h.177v.176h-.177v-.176zm0-.177h.177v.177h-.177v-.177zm.353 2.295h.177V5h-.177v-.176zm-.176 0h.176V5H6.65v-.176zm-.177-.177h.177v.177h-.177v-.177zm0-.176h.177v.176h-.177v-.176zm0 .353h.177V5h-.177v-.176zm.883-2.471h.176v.176h-.176v-.176zm-.353 0h.176v.176h-.176v-.176zm.53 0h.176v.176h-.177v-.176zm.176 0h.176v.176H7.71v-.176zm.176 0h.177v.176h-.177v-.176zm.177.176h.176v.177h-.176v-.177zm0 .177h.176v.176h-.176v-.176zm.176 0h.177v.176h-.177v-.176zm-.176.176h.176v.177h-.176v-.177zm-.177 0h.177v.177h-.177v-.177zm-.882 1.942h.176V5h-.176v-.176zm0-.177h.176v.177h-.176v-.177zm-.177 0h.177v.177h-.177v-.177zm-.176 0h.176v.177H6.65v-.177zm0-1.412h.176v.177H6.65v-.177zm0-.176h.176v.176H6.65V3.06zm-.177-.177h.177v.177h-.177v-.177zm.177-.176h.176v.176H6.65v-.176zm.176-.177h.177v.177h-.177v-.177zm.177 0h.176v.177h-.176v-.177zm.176 0h.177v.177h-.177v-.177zm0 .177h.177v.176h-.177v-.176zm0 .176h.177v.177h-.177v-.177zm-.176 0h.176v.177h-.176v-.177zm-.177 0h.177v.177h-.177v-.177zm.177.177h.176v.176h-.176V3.06zm0 .176h.176v.177h-.176v-.177zm0 .177h.176v.176h-.176v-.176zm0 1.059h.176v.176h-.176v-.176zm-.177 0h.177v.176h-.177v-.176zm0-1.236h.177v.177h-.177v-.177zm0-.176h.177v.176h-.177V3.06zm0-.353h.177v.176h-.177v-.176zm.177 0h.176v.176h-.176v-.176zm.353-.177h.176v.177h-.176v-.177zm.176 0h.177v.177h-.177v-.177zm.177 0h.176v.177H7.71v-.177zm.176 0h.177v.177h-.177v-.177zm0 .177h.177v.176h-.177v-.176zm-.176 0h.176v.176H7.71v-.176zm-.177 0h.177v.176h-.177v-.176zm-.176 0h.176v.176h-.176v-.176zm-.706-.177h.176v.177H6.65v-.177zm0 1.942h.176v.176H6.65v-.176zm0-1.589h.176v.177H6.65v-.177zm-.177.177h.177v.176h-.177V3.06zm0 .176h.177v.177h-.177v-.177zm0 1.06h.177v.176h-.177v-.177zm.177 0h.176v.176H6.65v-.177zm.176 0h.177v.176h-.177v-.177zm.177 0h.176v.176h-.176v-.177zm-.177-.883h.177v.176h-.177v-.176zm-.176 0h.176v.176H6.65v-.176zm-.177 0h.177v.176h-.177v-.176zm0 .176h.177v.177h-.177v-.177zm0 .177h.177v.176h-.177v-.176zm0 .176h.177v.177h-.177V3.94zm.177 0h.176v.177H6.65V3.94zm0 .177h.176v.176H6.65v-.176zm.176 0h.177v.176h-.177v-.176zm-.353 0h.177v.176h-.177v-.176zm.53 0h.176v.176h-.176v-.176zm0-.177h.176v.177h-.176V3.94zm0-.176h.176v.176h-.176v-.176zm0-.177h.176v.177h-.176v-.177zm-.177 0h.177v.177h-.177v-.177zm-.176 0h.176v.177H6.65v-.177zm0 .177h.176v.176H6.65v-.176zm.176.176h.177v.177h-.177V3.94zm0-.176h.177v.176h-.177v-.176zm.883-.883h.176v.177H7.71v-.177zm.176.177h.177v.176h-.177V3.06zm2.645-.177h.176v.177h-.176v-.177zm-.177 0h.177v.177h-.177v-.177zm-.176 0h.176v.177h-.176v-.177zm0-.176h.176v.176h-.176v-.176zm-.177 0h.177v.176H10v-.176zm.353 0h.177v.176h-.177v-.176zm.177 0h.176v.176h-.176v-.176zm-.177-.177h.177v.177h-.177v-.177zm-.176 0h.176v.177h-.176v-.177zm-.177 0h.177v.177H10v-.177zm0-.176h.177v.176H10v-.176zm.177 0h.176v.176h-.176v-.176zm-.353 0H10v.176h-.176v-.176zm-.177 0h.177v.176h-.177v-.176zm-.176 0h.176v.176h-.176v-.176zm-.177.176h.177v.177h-.177v-.177zm-.176 0h.176v.177h-.176v-.177zm0-.176h.176v.176h-.176v-.176zm.176 0h.177v.176h-.177v-.176zm.177.176h.176v.177h-.176v-.177zm0 .177h.176v.176h-.176v-.176zm.176 0h.177v.176h-.177v-.176zm.177 0H10v.176h-.176v-.176zm0-.177H10v.177h-.176v-.177zm-.177 0h.177v.177h-.177v-.177zm-.353.177h.177v.176h-.177v-.176zm-.176 0h.176v.176h-.176v-.176zm-.176 0h.176v.176h-.176v-.176zm-.177 0h.177v.176h-.177v-.176zm0-.177h.177v.177h-.177v-.177zm.177 0h.176v.177h-.176v-.177zm.176.353h.176v.177h-.176v-.177zm.176 0h.177v.177h-.177v-.177zm-.352 0h.176v.177h-.176v-.177zm-.177 0h.177v.177h-.177v-.177zm-.176 0h.176v.177H8.59v-.177zm.176.177h.177v.176h-.177V3.06zm-.176 0h.176v.176H8.59V3.06zm0 .176h.176v.177H8.59v-.177zm.176 0h.177v.177h-.177v-.177zm.177-.176h.176v.176h-.176V3.06zm.176 0h.176v.176h-.176V3.06zm0 .176h.176v.177h-.176v-.177zm.176 0h.177v.177h-.177v-.177zm-.352 0h.176v.177h-.176v-.177zm0 .177h.176v.176h-.176v-.176zm-.177 0h.177v.176h-.177v-.176zm.177.176h.176v.177h-.176v-.177zm-.177 0h.177v.177h-.177v-.177zm.353-.176h.176v.176h-.176v-.176zm.176 0h.177v.176h-.177v-.176zm0 .176h.177v.177h-.177v-.177zm0 .177h.177v.176h-.177v-.176zm-.176 0h.176v.176h-.176v-.176zm0-.177h.176v.177h-.176v-.177zm.353 0h.176v.177h-.176v-.177zm.176 0h.177v.177h-.177v-.177zm0-.176h.177v.176h-.177v-.176zm.177 0H10v.176h-.176v-.176zm.176 0h.177v.176H10v-.176zm.177 0h.176v.176h-.176v-.176zm-.706 0h.176v.176h-.176v-.176zm0 .353h.176v.176h-.176v-.176zm.176 0h.177v.176h-.177v-.176zm.177 0H10v.176h-.176v-.176zm.176 0h.177v.176H10v-.176zm.177 0h.176v.176h-.176v-.176zm0-.177h.176v.177h-.176v-.177zm-.177 0h.177v.177H10v-.177zm-.176 0H10v.177h-.176v-.177zm.706 0h.176v.177h-.176v-.177zm-.177 0h.177v.177h-.177v-.177zm0 .177h.177v.176h-.177v-.176zm.177 0h.176v.176h-.176v-.176zm-.353.176h.176v.177h-.176V3.94zm-.177 0h.177v.177H10V3.94zm.353 0h.177v.177h-.177V3.94zm.177 0h.176v.177h-.176V3.94zm.176 0h.177v.177h-.177V3.94zm0 .177h.177v.176h-.177v-.176zm0 .176h.177v.177h-.177v-.177zm-.176 0h.176v.177h-.176v-.177zm0-.176h.176v.176h-.176v-.176zm-.177 0h.177v.176h-.177v-.176zm0 .176h.177v.177h-.177v-.177zm-.176-.176h.176v.176h-.176v-.176zm0 .176h.176v.177h-.176v-.177zm-.177 0h.177v.177H10v-.177zm0 .177h.177v.176H10v-.176zm.177 0h.176v.176h-.176v-.176zm0 .176h.176v.177h-.176v-.177zm.176 0h.177v.177h-.177v-.177zm0-.176h.177v.176h-.177v-.176zm.177 0h.176v.176h-.176v-.176zm0 .176h.176v.177h-.176v-.177zm-.353.177h.176V5h-.176v-.176zm-.177 0h.177V5H10v-.176zm0-.177h.177v.177H10v-.177zm-.176 0H10v.177h-.176v-.177zm-.177 0h.177v.177h-.177v-.177zm-.176 0h.176v.177h-.176v-.177zm0-.176h.176v.176h-.176v-.176zm.176 0h.177v.176h-.177v-.176zm.177 0H10v.176h-.176v-.176zm0 .353H10V5h-.176v-.176zm-.177 0h.177V5h-.177v-.176zm-.176 0h.176V5h-.176v-.176zm-.177 0h.177V5h-.177v-.176zm-.176 0h.176V5h-.176v-.176zm0-.177h.176v.177h-.176v-.177zm.176 0h.177v.177h-.177v-.177zm0-.176h.177v.176h-.177v-.176zm-.176 0h.176v.176h-.176v-.176zm-.176.176h.176v.177h-.176v-.177zm-.177 0h.177v.177h-.177v-.177zm0-.176h.177v.176h-.177v-.176zm.177 0h.176v.176h-.176v-.176zm.176-.177h.176v.177h-.176v-.177zm.176 0h.177v.177h-.177v-.177zm-.176-.176h.176v.176h-.176v-.176zm-.176 0h.176v.176h-.176v-.176zm-.177 0h.177v.176h-.177v-.176zm-.176 0h.176v.176H8.59v-.176zm0 .176h.176v.177H8.59v-.177zm.176 0h.177v.177h-.177v-.177zm.177 0h.176v.177h-.176v-.177zm1.764-1.412h.177v.177h-.177v-.177zm-.176-.353h.176v.177h-.176v-.177zm.176.53h.177v.176h-.177V3.06zm-.176 0h.176v.176h-.176V3.06zm-.177 0h.177v.176h-.177V3.06zm-.176 0h.176v.176h-.176V3.06zM10 2.882h.177v.177H10v-.177zm2.119-.53h.176v.177h-.176v-.176zm.176 0h.177v.177h-.177v-.176zm-.353 0h.177v.177h-.177v-.176zm.53 0h.176v.177h-.176v-.176zm.176 0h.177v.177h-.177v-.176zm.177 0H13v.177h-.176v-.176zm.176 0h.177v.177H13v-.176zm.177.177h.176v.177h-.176v-.177zm-.177 0h.177v.177H13v-.177zm0 .177h.177v.176H13v-.176zm.353-.177h.176v.177h-.176v-.177zm0 .177h.176v.176h-.176v-.176zm-.176 0h.176v.176h-.176v-.176zM13 2.882h.177v.177H13v-.177zm-.176 0H13v.177h-.176v-.177zm.353 0h.176v.177h-.176v-.177zm.176 0h.176v.177h-.176v-.177zm.176 0h.177v.177h-.177v-.177zm0 .177h.177v.176h-.177V3.06zm0 1.059h.177v.176h-.177v-.176zm0 .176h.177v.177h-.177v-.177zm-.176 0h.176v.177h-.176v-.177zm0 .177h.176v.176h-.176v-.176zm0 .176h.176v.177h-.176v-.177zm-.176 0h.176v.177h-.176v-.177zm-.177 0h.177v.177H13v-.177zm-.176-.176H13v.176h-.176v-.176zm0-.177H13v.177h-.176v-.177zm.176 0h.177v.177H13v-.177zm0 .177h.177v.176H13v-.176zm.177 0h.176v.176h-.176v-.176zm0-.177h.176v.177h-.176v-.177zm0-.176h.176v.176h-.176v-.176zm-.177 0h.177v.176H13v-.176zm0-1.06h.177v.177H13V3.06zm.177 0h.176v.177h-.176V3.06zm.176 1.06h.176v.176h-.176v-.176zm0-1.06h.176v.177h-.176V3.06zm-.53 1.59h.177v.176h-.176v-.177zm0 .176h.177V5h-.176v-.176zm.177 0h.177V5H13v-.176zm-.353 0h.177V5h-.177v-.176zm-.176 0h.176V5h-.176v-.176zm-.177 0h.177V5h-.177v-.176zm-.176 0h.176V5h-.176v-.176zm-.177 0h.177V5h-.177v-.176zm0-.177h.177v.177h-.177v-.177zm-.176 0h.176v.177h-.176v-.177zm-.177 0h.177v.177h-.177v-.177zm0-.176h.177v.176h-.177v-.176zm-.176-.177h.176v.177h-.176v-.177zm.176 0h.177v.177h-.177v-.177zm-.176-.176h.176v.176h-.176v-.176zm0-.177h.176v.177h-.176V3.94zm0-.176h.176v.176h-.176v-.176zm0-.177h.176v.177h-.176v-.177zm0-.176h.176v.176h-.176v-.176zm0-.177h.176v.177h-.176v-.177zm.176 0h.177v.177h-.177v-.177zm0-.176h.177v.176h-.177V3.06zm-.176 0h.176v.176h-.176V3.06zm0-.177h.176v.177h-.176v-.177zm.176 0h.177v.177h-.177v-.177zm0-.176h.177v.176h-.177v-.176zm0-.177h.177v.177h-.177v-.177zm.177 0h.176v.177h-.176v-.177zm.176 0h.177v.177h-.177v-.177zm.177 0h.176v.177h-.176v-.177zm0 .177h.176v.176h-.176v-.176zm0 .176h.176v.177h-.176v-.177zm-.177 0h.177v.177h-.177v-.177zm-.176 0h.176v.177h-.176v-.177zm.176.177h.177v.176h-.177V3.06zm0 .176h.177v.177h-.177v-.177zm0 .177h.177v.176h-.177v-.176zm0 .176h.177v.177h-.177v-.177zm0 .177h.177v.176h-.177v-.176zm0 .176h.177v.177h-.177V3.94zm0 .177h.177v.176h-.177v-.176zm0 .176h.177v.177h-.177v-.177zm.177 0h.176v.177h-.176v-.177zm0 .177h.176v.176h-.176v-.176zm.176 0h.177v.176h-.177v-.176zm.177 0h.176v.176h-.176v-.176zm.176 0h.177v.176h-.177v-.176zm0 .176h.177v.177h-.177v-.177zm-.176 0h.176v.177h-.176v-.177zm-.177 0h.177v.177h-.177v-.177zm-.176 0h.176v.177h-.176v-.177zm-.177-.176h.177v.176h-.177v-.176zm-.176 0h.176v.176h-.176v-.176zm0-.177h.176v.177h-.176v-.177zm0-.176h.176v.176h-.176v-.176zm0-.177h.176v.177h-.176V3.94zm-.177 0h.177v.177h-.177V3.94zm0 .177h.177v.176h-.177v-.176zm0-.353h.177v.176h-.177v-.176zm0-.177h.177v.177h-.177v-.177zm0-.176h.177v.176h-.177v-.176zm.177 0h.176v.176h-.176v-.176zm0 .176h.176v.177h-.176v-.177zm0 .177h.176v.176h-.176v-.176zm0-.53h.176v.177h-.176v-.177zm0-.176h.176v.176h-.176V3.06zm0-.353h.176v.176h-.176v-.176zm.176 0h.177v.176h-.177v-.176zm.353-.177h.177v.177h-.177v-.177zm.177 0h.176v.177h-.176v-.177zm.176 0h.177v.177h-.177v-.177zm.177 0H13v.177h-.176v-.177zm0 .177H13v.176h-.176v-.176zm-.177 0h.177v.176h-.177v-.176zm-.176 0h.176v.176h-.176v-.176zm-.177 0h.177v.176h-.177v-.176zm1.235.53h.177v.176h-.177v-.177zm-.176 0h.176v.176h-.176v-.177zm-.176 0h.176v.176h-.176v-.177zm-.177 0h.177v.176H13v-.177zm.53.176h.176v.176h-.177v-.176zm-.177 0h.176v.176h-.176v-.176zm-.176 0h.176v.176h-.176v-.176zm-.177 0h.177v.176H13v-.176zm-.176 0H13v.176h-.176v-.176zm-.177 0h.177v.176h-.177v-.176zm-.176 0h.176v.176h-.176v-.176zm-.177 0h.177v.176h-.177v-.176zm-.176 0h.176v.176h-.176v-.176zm0 .176h.176v.177h-.176v-.177zm.176 0h.177v.177h-.177v-.177zm.177 0h.176v.177h-.176v-.177zm.176 0h.177v.177h-.177v-.177zm.177 0H13v.177h-.176v-.177zm.176 0h.177v.177H13v-.177zm.177 0h.176v.177h-.176v-.177zm.176 0h.176v.177h-.176v-.177zm.176 0h.177v.177h-.177v-.177zm.531-1.235h.177v.176h-.177v-.176zm.177 0h.176v.176h-.176v-.176zm.176 0h.177v.176h-.177v-.176zm.177 0h.176v.176h-.176v-.176zm0 .176h.176v.177h-.176v-.177zm0 .177h.176v.176h-.176v-.176zm0 .176h.176v.177h-.176v-.177zm0 .177h.176v.176h-.176V3.06zm0 .176h.176v.177h-.176v-.177zm0 .177h.176v.176h-.176v-.176zm0 .176h.176v.177h-.176v-.177zm0 .177h.176v.176h-.176v-.176zm0 .176h.176v.177h-.176V3.94zm-.177 0h.177v.177h-.177V3.94zm-.176 0h.176v.177h-.176V3.94zm-.177 0h.177v.177h-.177V3.94zm0-.176h.177v.176h-.177v-.176zm0-.177h.177v.177h-.177v-.177zm0-.176h.177v.176h-.177v-.176zm0-.177h.177v.177h-.177v-.177zm0-.176h.177v.176h-.177V3.06zm0-.177h.177v.177h-.177v-.177zm0-.176h.177v.176h-.177v-.176zm0-.177h.177v.177h-.177v-.177zm.177 0h.176v.177h-.176v-.177zm.176 0h.177v.177h-.177v-.177zm0 .177h.177v.176h-.177v-.176zm0 .176h.177v.177h-.177v-.177zm0 .177h.177v.176h-.177V3.06zm0 .176h.177v.177h-.177v-.177zm0 .177h.177v.176h-.177v-.176zm-.176.176h.176v.177h-.176v-.177zm0 .177h.176v.176h-.176v-.176zm0-.353h.176v.176h-.176v-.176zm0-.177h.176v.177h-.176v-.177zm0-.176h.176v.176h-.176V3.06zm0-.177h.176v.177h-.176v-.177zm0-.176h.176v.176h-.176v-.176zm.176.882h.177v.177h-.177v-.177zm0 .177h.177v.176h-.177v-.176zm1.236-1.412h.176v.176h-.177v-.176zm.176 0h.176v.176h-.176v-.176zm.176 0h.177v.176h-.177v-.176zm.177 0h.176v.176h-.176v-.176zm0 .176h.176v.177h-.176v-.177zm0 .177h.176v.176h-.176v-.176zm0 .176h.176v.177h-.176v-.177zm0 .177h.176v.176h-.176V3.06zm0 .176h.176v.177h-.176v-.177zm0 .177h.176v.176h-.176v-.176zm0 .176h.176v.177h-.176v-.177zm0 .177h.176v.176h-.176v-.176zm0 .176h.176v.177h-.176V3.94zm-.177-.176h.177v.176h-.177v-.176zm-.176 0h.176v.176h-.176v-.176zm0 .176h.176v.177h-.176V3.94zm-.177-.176h.177v.176h-.177v-.176zm0-.177h.177v.177h-.177v-.177zm0-.176h.177v.176h-.177v-.176zm0-.177h.177v.177h-.177v-.177zm0-.176h.177v.176h-.177V3.06zm0-.177h.177v.177h-.177v-.177zm0-.176h.177v.176h-.177v-.176zm0-.177h.177v.177h-.177v-.177zm.177 0h.176v.177h-.176v-.177zm.176 0h.177v.177h-.177v-.177zm0 .177h.177v.176h-.177v-.176zm0 .176h.177v.177h-.177v-.177zm0 .177h.177v.176h-.177V3.06zm0 .176h.177v.177h-.177v-.177zm0 .177h.177v.176h-.177v-.176zm0 .176h.177v.177h-.177v-.177zm-.176 0h.176v.177h-.176v-.177zm0-.176h.176v.176h-.176v-.176zm0-.177h.176v.177h-.176v-.177zm0-.176h.176v.176h-.176V3.06zm0-.177h.176v.177h-.176v-.177zm0-.176h.176v.176h-.176v-.176zm-.353 1.235h.176v.177h-.176V3.94zm.176 0h.177v.177h-.177V3.94zm.177.177h.176v.176h-.176v-.176zm.176 0h.177v.176h-.177v-.176zm0-.177h.177v.177h-.177V3.94zm-.352.177h.176v.176h-.177v-.176zm0 .176h.176v.177h-.177v-.177zm.176 0h.176v.177h-.176v-.177zm-.177.177h.177v.176h-.177v-.176zm-.176 0h.176v.176h-.176v-.176zm0 .176h.176v.177h-.176v-.177zm-.177 0h.177v.177h-.177v-.177zm0 .177h.177V5h-.177v-.176zm-.176 0h.177V5h-.177v-.176zm0 .176h.177v.176h-.177V5zm-.176 0h.176v.176h-.176V5zm0 .176h.176v.177h-.176v-.177zm-.177 0h.177v.177h-.177v-.177zm0 .177h.177v.176h-.177v-.176zm-.176 0h.176v.176h-.176v-.176zm0 .176h.176v.177h-.176v-.177zm-.177 0h.177v.177h-.177v-.177zm0 .177h.177v.176h-.177v-.176zm-.176 0h.176v.176h-.176v-.176zm-.177 0h.177v.176h-.177v-.176zm0-.177h.177v.177h-.177v-.177zm0-.176h.177v.176h-.177v-.176zm.177 0h.176v.176h-.176v-.176zm0 .176h.176v.177h-.176v-.177zm.176-.176h.177v.176h-.177v-.176zm-.176-.177h.176v.177h-.176v-.177zm.176 0h.177v.177h-.177v-.177zm0-.176h.177v.176h-.177V5zm.177 0h.176v.176h-.176V5zm.176 0h.177v.176h-.177V5zm0-.176h.177V5h-.177v-.176zm-.176 0h.176V5h-.176v-.176zm0 .352h.176v.177h-.176v-.177zm.353-.529h.176v.177h-.176v-.177zm-.177 0h.177v.177h-.177v-.177zm.177.177h.176V5h-.176v-.176zm.176-.177h.177v.177h-.177v-.177zm0-.176h.177v.176h-.177v-.176zm.177 0h.176v.176h-.177v-.176zm0-.177h.176v.177h-.177v-.177zm.176 0h.176v.177h-.176v-.177zm0-.176h.176v.176h-.176v-.176zm-.177 0h.177v.176h-.177v-.176zm-.176.176h.177v.177h-.177v-.177zm-.176 0h.176v.177h-.176v-.177zm0-.176h.176v.176h-.176v-.176zm-.177.176h.177v.177h-.177v-.177zm0-.176h.177v.176h-.177v-.176zm0-.177h.177v.177h-.177V3.94zm-.176.177h.176v.176h-.176v-.176zm-.177 0h.177v.176h-.177v-.176zm-.176 0h.176v.176h-.176v-.176zm.353.176h.176v.177h-.176v-.177zm-.177 0h.177v.177h-.177v-.177zm.177.177h.176v.176h-.176v-.176zm.176 0h.177v.176h-.177v-.176zm.177 0h.176v.176h-.176v-.176z" fill="#fff"/></svg>